<svg width="20" height="15" viewBox="0 0 20 15" fill="none" xmlns="http://www.w3.org/2000/svg">
<rect width="20" height="15" fill="#DE2910"/>
<path d="M3.28125 1.5L4.60547 5.57031L1.14062 3.05469H5.42188L1.95703 5.57031L3.28125 1.5Z" fill="#FFDE00"/>
<path d="M7.32422 0.808594L7.19922 2.23047L6.46484 1.00781L7.77734 1.56641L6.38672 1.88672L7.32422 0.808594Z" fill="#FFDE00"/>
<path d="M9.07031 2.47656L8.40234 3.73828L8.19922 2.32812L9.19531 3.35156L7.78906 3.10547L9.07031 2.47656Z" fill="#FFDE00"/>
<path d="M9.23437 4.99219L8.11328 5.87109L8.50391 4.5L8.99219 5.83984L7.80859 5.04297L9.23437 4.99219Z" fill="#FFDE00"/>
<path d="M7.29688 6.04688L7.23047 7.47266L6.44531 6.28125L7.78125 6.78516L6.40625 7.16406L7.29688 6.04688Z" fill="#FFDE00"/>
</svg>
