<svg width="20" height="15" viewBox="0 0 20 15" fill="none" xmlns="http://www.w3.org/2000/svg">
<rect width="20" height="15" fill="#EBEBEB"/>
<path d="M4.04247 6.10668L6.09388 3.0257M3.27126 5.59382L5.32653 2.51285M2.50391 5.08097L4.55918 1.99999" stroke="#252422" stroke-width="0.617044"/>
<path d="M15.3364 13.6375L17.3916 10.5565M14.5652 13.1247L16.6204 10.0437M13.7939 12.6118L15.8492 9.53084" stroke="#252422" stroke-width="0.617044"/>
<path d="M14.3105 10.7262L16.8748 12.4383" stroke="#FEFEFE" stroke-width="0.308445"/>
<path d="M6.86429 5.76735C7.99797 4.06683 10.2962 3.60796 11.9967 4.74164C13.6972 5.87532 14.1561 8.17352 13.0224 9.87403C11.8887 11.5745 9.59051 12.0334 7.89 10.8997C6.18948 9.76606 5.73061 7.46786 6.86429 5.76735Z" fill="#C62631"/>
<path d="M6.86507 5.76735C6.29823 6.61953 6.52959 7.76863 7.37792 8.33547C8.23011 8.90231 9.37921 8.67095 9.94605 7.82262C10.5129 6.97043 11.662 6.74293 12.5142 7.30977C13.3664 7.8766 13.5939 9.0257 13.027 9.87789C11.8933 11.5784 9.59515 12.0373 7.89463 10.9036C6.19026 9.76606 5.73139 7.46786 6.86507 5.76735Z" fill="#303C70"/>
<path d="M6.09383 12.6118L4.04242 9.53084M5.32648 13.1247L3.27121 10.0437M4.55527 13.6375L2.5 10.5565" stroke="#252422" stroke-width="0.617044"/>
<path d="M17.3878 5.08097L15.3325 1.99999M16.6204 5.59382L14.5652 2.51285M15.8492 6.10668L13.7939 3.0257" stroke="#252422" stroke-width="0.617044"/>
<path d="M15.9767 3.79691L16.7479 3.28406M14.3109 4.91131L15.2094 4.31362M3.91504 11.8406L4.68625 11.3278" stroke="#FEFEFE" stroke-width="0.308445"/>
</svg>
