<svg width="20" height="15" viewBox="0 0 20 15" fill="none" xmlns="http://www.w3.org/2000/svg">
<path fill-rule="evenodd" clip-rule="evenodd" d="M0 0V15H20V0H0Z" fill="#2E42A5"/>
<mask id="mask0_796_911" style="mask-type:luminance" maskUnits="userSpaceOnUse" x="0" y="0" width="20" height="15">
<path fill-rule="evenodd" clip-rule="evenodd" d="M0 0V15H20V0H0Z" fill="white"/>
</mask>
<g mask="url(#mask0_796_911)">
<path d="M-2.22656 13.9287L2.17449 15.79L20.1003 2.02397L22.4217 -0.74196L17.7154 -1.36406L10.4039 4.56811L4.51893 8.56501L-2.22656 13.9287Z" fill="white"/>
<path d="M-1.62402 15.2333L0.618111 16.3134L21.5881 -0.99842H18.4399L-1.62402 15.2333Z" fill="#F50100"/>
<path d="M22.2275 13.9287L17.8265 15.79L-0.0992904 2.02397L-2.42075 -0.74196L2.28555 -1.36406L9.59704 4.56811L15.482 8.56501L22.2275 13.9287Z" fill="white"/>
<path d="M22.0771 14.8642L19.835 15.9443L10.9058 8.53224L8.25843 7.7041L-2.64435 -0.732894H0.503872L11.4005 7.50385L14.2949 8.49687L22.0771 14.8642Z" fill="#F50100"/>
<mask id="path-7-inside-1_796_911" fill="white">
<path d="M12.3613 4.99994H21.2676V9.99994H12.3613V16.2499H7.63867V9.99994H-1.23242V4.99994H7.63867V-1.25006H12.3613V4.99994Z"/>
</mask>
<path d="M12.3613 4.99994H21.2676V9.99994H12.3613V16.2499H7.63867V9.99994H-1.23242V4.99994H7.63867V-1.25006H12.3613V4.99994Z" fill="#F50100"/>
<path d="M12.3613 4.99994H11.528V5.83327H12.3613V4.99994ZM21.2676 4.99994H22.1009V4.1666H21.2676V4.99994ZM21.2676 9.99994V10.8333H22.1009V9.99994H21.2676ZM12.3613 9.99994V9.1666H11.528V9.99994H12.3613ZM12.3613 16.2499V17.0833H13.1947V16.2499H12.3613ZM7.63867 16.2499H6.80534V17.0833H7.63867V16.2499ZM7.63867 9.99994H8.47201V9.1666H7.63867V9.99994ZM-1.23242 9.99994H-2.06576V10.8333H-1.23242V9.99994ZM-1.23242 4.99994V4.1666H-2.06576V4.99994H-1.23242ZM7.63867 4.99994V5.83327H8.47201V4.99994H7.63867ZM7.63867 -1.25006V-2.0834H6.80534V-1.25006H7.63867ZM12.3613 -1.25006H13.1947V-2.0834H12.3613V-1.25006ZM12.3613 4.99994V5.83327H21.2676V4.99994V4.1666H12.3613V4.99994ZM21.2676 4.99994H20.4342V9.99994H21.2676H22.1009V4.99994H21.2676ZM21.2676 9.99994V9.1666H12.3613V9.99994V10.8333H21.2676V9.99994ZM12.3613 9.99994H11.528V16.2499H12.3613H13.1947V9.99994H12.3613ZM12.3613 16.2499V15.4166H7.63867V16.2499V17.0833H12.3613V16.2499ZM7.63867 16.2499H8.47201V9.99994H7.63867H6.80534V16.2499H7.63867ZM7.63867 9.99994V9.1666H-1.23242V9.99994V10.8333H7.63867V9.99994ZM-1.23242 9.99994H-0.399089V4.99994H-1.23242H-2.06576V9.99994H-1.23242ZM-1.23242 4.99994V5.83327H7.63867V4.99994V4.1666H-1.23242V4.99994ZM7.63867 4.99994H8.47201V-1.25006H7.63867H6.80534V4.99994H7.63867ZM7.63867 -1.25006V-0.416732H12.3613V-1.25006V-2.0834H7.63867V-1.25006ZM12.3613 -1.25006H11.528V4.99994H12.3613H13.1947V-1.25006H12.3613Z" fill="white" mask="url(#path-7-inside-1_796_911)"/>
</g>
</svg>
