<svg width="16" height="16" viewBox="0 0 16 16" fill="none" xmlns="http://www.w3.org/2000/svg">
<path d="M12.4785 13.5H2.47852C2.20237 13.5 1.97852 13.2761 1.97852 13C1.97852 12.7239 2.20237 12.5 2.47852 12.5H12.4785C12.7547 12.5 12.9785 12.7239 12.9785 13C12.9785 13.2761 12.7547 13.5 12.4785 13.5Z" fill="#1A3D4E"/>
<path d="M12.9785 11.5H1.97852C1.97852 9.29086 3.76938 7.5 5.97852 7.5H8.97852C11.1877 7.5 12.9785 9.29086 12.9785 11.5Z" fill="#1A3D4E"/>
<rect x="4.97852" y="3.5" width="1" height="2" fill="#1A3D4E"/>
<rect x="6.97852" y="1.5" width="1" height="3" fill="#1A3D4E"/>
<rect x="5.97852" y="6.5" width="3" height="1" fill="#1A3D4E"/>
<rect x="8.97852" y="2.5" width="1" height="2" fill="#1A3D4E"/>
</svg>
