<svg width="164" height="40" viewBox="0 0 164 40" fill="none" xmlns="http://www.w3.org/2000/svg">
<g clip-path="url(#clip0_3023_270)">
<path d="M40.2643 7.64844V8.59967H32.5268V13.8591H37.702V14.8104H32.5268V21.4112H40.2643V22.3624H30.0605V7.64844H40.2643Z" fill="#4FB84F"/>
<path d="M43.8965 7.64844H45.2762L54.8935 18.3913H54.9873V7.64844H56.0713V22.36H55.2108L45.0863 10.7405H45.0022V22.36H43.8965V7.64844Z" fill="#4FB84F"/>
<path d="M67.5362 7.64844L74.2955 22.36H71.786L69.541 17.4497H63.248L60.9284 22.36H59.6953L66.6108 7.64844H67.5362ZM63.6807 16.4985H69.0891L66.4209 10.6779L63.6807 16.4985Z" fill="#4FB84F"/>
<path d="M81.8265 21.763C82.1919 21.763 82.5524 21.7124 82.9082 21.6161C83.2639 21.5173 83.5788 21.3704 83.8576 21.173C84.1365 20.9755 84.3576 20.7347 84.5283 20.4505C84.6965 20.1663 84.7807 19.8364 84.7807 19.4631C84.7807 19.0128 84.6653 18.6131 84.4321 18.2639C84.2014 17.9147 83.8961 17.592 83.5211 17.2982C83.1461 17.002 82.7135 16.725 82.2303 16.4698C81.7448 16.2121 81.252 15.9544 80.7496 15.6943C80.2472 15.4343 79.7545 15.1621 79.2689 14.8756C78.7834 14.5914 78.3531 14.2735 77.9781 13.9243C77.6032 13.5751 77.2979 13.185 77.0671 12.7515C76.8364 12.3181 76.7186 11.8196 76.7186 11.2561C76.7186 10.6925 76.8244 10.17 77.0359 9.68833C77.2474 9.2067 77.5551 8.78767 77.9637 8.43608C78.3723 8.08448 78.8723 7.80754 79.466 7.60766C80.0598 7.40778 80.7424 7.30664 81.5164 7.30664C82.9082 7.30664 84.0067 7.59803 84.8119 8.18322C85.6172 8.76841 86.1989 9.61368 86.557 10.719L85.2927 11.2994C85.146 10.8491 84.9561 10.4373 84.7278 10.064C84.4994 9.69074 84.2254 9.37045 83.9057 9.10315C83.586 8.83584 83.2183 8.63114 82.8048 8.48665C82.389 8.34216 81.9226 8.26991 81.4034 8.26991C80.9395 8.26991 80.5333 8.33493 80.1848 8.46498C79.8362 8.59502 79.5478 8.76359 79.3194 8.9731C79.0911 9.18021 78.918 9.41621 78.8026 9.68111C78.6872 9.94601 78.6295 10.2157 78.6295 10.4903C78.6295 10.878 78.7497 11.232 78.9877 11.5523C79.2257 11.8726 79.5406 12.1784 79.9252 12.465C80.3122 12.754 80.7544 13.0309 81.2544 13.2934C81.7544 13.5583 82.2616 13.8256 82.7784 14.1001C83.2952 14.3747 83.8024 14.6588 84.3023 14.955C84.8023 15.2512 85.2446 15.5739 85.6316 15.9255C86.0186 16.2771 86.3311 16.6624 86.569 17.0815C86.807 17.5005 86.9272 17.9677 86.9272 18.4806C86.9272 19.0658 86.8166 19.6125 86.5955 20.123C86.3743 20.6335 86.0426 21.0814 85.5979 21.4643C85.1557 21.8472 84.6052 22.1507 83.949 22.3722C83.2928 22.5938 82.5284 22.7046 81.6558 22.7046C80.9539 22.7046 80.3242 22.6275 79.7689 22.4734C79.2137 22.3193 78.7233 22.0929 78.2978 21.7967C77.8724 21.5005 77.5094 21.1392 77.2065 20.7082C76.9037 20.2795 76.6537 19.7931 76.459 19.2512L77.7882 18.7022C77.9421 19.1814 78.1512 19.61 78.4108 19.9905C78.6704 20.371 78.9757 20.6937 79.3218 20.9562C79.6704 21.2211 80.0574 21.421 80.4804 21.5583C80.9059 21.6955 81.3578 21.7654 81.8361 21.7654L81.8265 21.763Z" fill="#4FB84F"/>
<path d="M12.3046 9.30165C9.32163 5.24145 4.99012 2.2529 0 0.976562V22.3612H1.81721V5.41244C5.32905 6.91514 8.2712 9.47745 10.2495 12.7165C8.86733 15.5605 8.07169 18.7441 8.03564 22.118C8.03564 22.1999 8.03804 22.2818 8.03804 22.3636H9.85526C9.85526 22.289 9.85045 22.2143 9.85285 22.1397C9.8817 19.5412 10.4081 17.0608 11.3359 14.7827C12.2806 16.8922 12.8455 19.2161 12.9368 21.6749C12.9464 21.9061 12.944 22.1349 12.944 22.3636H16.5761C16.5761 22.0891 16.5761 21.8146 16.5664 21.5376C16.4222 17.6556 15.2805 14.0482 13.4031 10.9464C15.3285 8.14572 17.939 5.84591 20.9821 4.29985V22.3612H24.6141V0.976562C19.6096 2.2529 15.2829 5.24627 12.3071 9.30165H12.3046Z" fill="#E4A025"/>
</g>
<path d="M96.6955 23V7.70111H99.34L105.481 20.4648L111.535 7.70111H114.202V23H111.973V9.40585L105.503 23H104.279L97.8101 9.36213V23H96.6955ZM118.561 23H117.337L124.353 7.70111H125.599L132.593 23H130.254L128.309 18.7382H120.528L118.561 23ZM120.9 17.9077H127.915L124.419 10.3019L120.9 17.9077ZM135.742 23V7.70111H137.971V21.9728H146.976V23H135.742ZM150.548 23V7.70111H152.777V21.9728H161.782V23H150.548Z" fill="#4FB84F"/>
<path d="M33.8424 35.5805C33.8424 35.3896 33.7863 35.2099 33.6852 35.0414C33.5841 34.8842 33.4718 34.7494 33.337 34.6371C33.2023 34.5248 33.0226 34.4238 32.798 34.3115C32.5734 34.2104 32.3712 34.1318 32.214 34.0644C32.0567 34.0082 31.8546 33.9408 31.6187 33.8735C31.1471 33.7387 30.754 33.6151 30.4395 33.4804C30.1251 33.3568 29.8106 33.1996 29.5074 33.0087C29.2041 32.829 28.9795 32.6044 28.8223 32.3573C28.6651 32.1102 28.5977 31.8182 28.5977 31.5038C28.5977 30.8861 28.8672 30.3807 29.4287 29.9876C29.9903 29.6058 30.7203 29.4036 31.63 29.4036C32.5509 29.4036 33.2809 29.617 33.8424 30.0213C34.3927 30.4368 34.6735 30.9872 34.6735 31.661H33.5055C33.5055 31.1107 33.3146 30.6727 32.9552 30.3358C32.5958 29.9988 32.1017 29.8304 31.484 29.8304C30.9337 29.8304 30.4844 29.9539 30.1363 30.201C29.7881 30.4481 29.6197 30.7625 29.6197 31.1444C29.6197 31.3241 29.6646 31.4813 29.7544 31.6273C29.8443 31.7845 29.9454 31.9081 30.0801 32.0091C30.2037 32.1102 30.3834 32.2113 30.6304 32.3236C30.8775 32.4359 31.0909 32.5145 31.2931 32.5819C31.484 32.6493 31.7423 32.7279 32.0792 32.829C32.461 32.9413 32.7755 33.0536 33.045 33.1659C33.3146 33.2782 33.5954 33.4355 33.9098 33.6151C34.213 33.7948 34.4489 34.0307 34.6174 34.3002C34.7746 34.5698 34.8644 34.873 34.8644 35.2099C34.8644 35.8725 34.5612 36.4116 33.966 36.8159C33.3707 37.2202 32.5958 37.4224 31.6412 37.4224C30.6754 37.4224 29.9117 37.2202 29.3389 36.8047C28.7549 36.3891 28.4741 35.8388 28.4741 35.1538H29.6309C29.6309 35.7153 29.8218 36.1645 30.2149 36.5014C30.5967 36.8384 31.1246 36.9956 31.7872 36.9956C32.3937 36.9956 32.8878 36.8721 33.2697 36.6025C33.6515 36.333 33.8424 35.9961 33.8424 35.5805ZM36.4615 37.3438H35.8326L39.4376 29.4822H40.0778L43.6716 37.3438H42.4699L41.4704 35.1538H37.4722L36.4615 37.3438ZM37.6632 34.727H41.2682L39.4713 30.8187L37.6632 34.727ZM45.2899 37.3438V29.4822H46.4354V37.3438H45.2899ZM48.4258 33.3793C48.4258 32.1888 48.7964 31.223 49.5376 30.493C50.2789 29.7742 51.2896 29.4036 52.5699 29.4036C53.5919 29.4036 54.4343 29.6395 55.0969 30.0999C55.7482 30.5604 56.0852 31.1444 56.0852 31.8631H54.9172C54.9172 31.2792 54.6926 30.785 54.2433 30.4032C53.7941 30.0213 53.2213 29.8304 52.5363 29.8304C51.6378 29.8304 50.919 30.1561 50.4024 30.8075C49.8746 31.4588 49.6163 32.3124 49.6163 33.3793C49.6163 34.4799 49.897 35.3671 50.4586 36.0185C51.0201 36.6699 51.795 36.9956 52.7721 36.9956C53.2326 36.9956 53.6593 36.9282 54.0412 36.7822C54.423 36.6474 54.7375 36.4453 54.9621 36.1982V33.8622H52.3903V33.3344H56.1076V36.1982C55.8156 36.5801 55.3776 36.8833 54.7936 37.0967C54.2096 37.3213 53.5583 37.4224 52.817 37.4224C51.4469 37.4224 50.38 37.063 49.5938 36.3218C48.8077 35.5918 48.4258 34.6147 48.4258 33.3793ZM57.8 33.413C57.8 32.2113 58.1593 31.2455 58.9006 30.5042C59.6306 29.7742 60.5964 29.4036 61.8093 29.4036C62.9998 29.4036 63.9656 29.7742 64.7069 30.5155C65.4481 31.2567 65.8187 32.2225 65.8187 33.413C65.8187 34.6147 65.4481 35.5805 64.7069 36.3218C63.9656 37.063 62.9998 37.4224 61.8093 37.4224C60.5964 37.4224 59.6306 37.063 58.9006 36.3218C58.1593 35.5918 57.8 34.6259 57.8 33.413ZM58.9904 33.413C58.9904 34.4911 59.2487 35.3559 59.7653 36.0073C60.282 36.6699 60.9558 36.9956 61.8093 36.9956C62.6516 36.9956 63.3367 36.6699 63.8533 36.0073C64.3699 35.3559 64.6283 34.4911 64.6283 33.413C64.6283 32.3348 64.3699 31.4701 63.8533 30.8187C63.3367 30.1673 62.6516 29.8304 61.8093 29.8304C60.9558 29.8304 60.282 30.1673 59.7653 30.8187C59.2487 31.4701 58.9904 32.3348 58.9904 33.413ZM68.3807 37.3438H67.808V29.4822H68.3807L74.1982 35.8613V29.4822H74.7822V37.3438H74.1982L68.3807 30.9535V37.3438ZM80.6202 37.3438H79.9913L83.5964 29.4822H84.2365L87.8303 37.3438H86.6287L85.6291 35.1538H81.631L80.6202 37.3438ZM81.8219 34.727H85.427L83.63 30.8187L81.8219 34.727ZM89.4486 37.3438V29.4822H90.5942V37.3438H89.4486ZM92.9552 37.3438V29.4822H96.1335C97.0768 29.4822 97.8405 29.6956 98.4245 30.1112C98.9973 30.5379 99.2893 31.0882 99.2893 31.7733C99.2893 32.3011 99.1096 32.7504 98.7727 33.1098C98.4245 33.4691 97.9528 33.7275 97.3464 33.8735L99.5139 37.3438H98.2448L96.1447 34.0082H94.1007V37.3438H92.9552ZM94.1007 33.4804H96.0436C96.6613 33.4804 97.1555 33.3344 97.5261 33.0311C97.8967 32.7279 98.0876 32.3124 98.0876 31.7733C98.0876 31.2455 97.8967 30.8187 97.5261 30.493C97.1555 30.1785 96.6613 30.0101 96.0548 30.0101H94.1007V33.4804ZM101.419 37.3438V29.4822H104.597C105.541 29.4822 106.304 29.7068 106.888 30.1336C107.461 30.5604 107.753 31.1332 107.753 31.8407C107.753 32.5595 107.461 33.1322 106.888 33.559C106.304 33.997 105.552 34.2104 104.609 34.2104H102.565V37.3438H101.419ZM102.565 33.6825H104.507C105.114 33.6825 105.608 33.5141 105.99 33.1771C106.361 32.8402 106.551 32.4022 106.551 31.8407C106.551 31.2904 106.361 30.8524 105.99 30.5155C105.619 30.1785 105.125 30.0101 104.519 30.0101H102.565V33.6825ZM109.095 33.413C109.095 32.2113 109.455 31.2455 110.196 30.5042C110.926 29.7742 111.892 29.4036 113.105 29.4036C114.295 29.4036 115.261 29.7742 116.002 30.5155C116.744 31.2567 117.114 32.2225 117.114 33.413C117.114 34.6147 116.744 35.5805 116.002 36.3218C115.261 37.063 114.295 37.4224 113.105 37.4224C111.892 37.4224 110.926 37.063 110.196 36.3218C109.455 35.5918 109.095 34.6259 109.095 33.413ZM110.286 33.413C110.286 34.4911 110.544 35.3559 111.061 36.0073C111.577 36.6699 112.251 36.9956 113.105 36.9956C113.947 36.9956 114.632 36.6699 115.149 36.0073C115.665 35.3559 115.924 34.4911 115.924 33.413C115.924 32.3348 115.665 31.4701 115.149 30.8187C114.632 30.1673 113.947 29.8304 113.105 29.8304C112.251 29.8304 111.577 30.1673 111.061 30.8187C110.544 31.4701 110.286 32.3348 110.286 33.413ZM119.103 37.3438V29.4822H122.282C123.225 29.4822 123.989 29.6956 124.573 30.1112C125.146 30.5379 125.438 31.0882 125.438 31.7733C125.438 32.3011 125.258 32.7504 124.921 33.1098C124.573 33.4691 124.101 33.7275 123.495 33.8735L125.662 37.3438H124.393L122.293 34.0082H120.249V37.3438H119.103ZM120.249 33.4804H122.192C122.81 33.4804 123.304 33.3344 123.674 33.0311C124.045 32.7279 124.236 32.3124 124.236 31.7733C124.236 31.2455 124.045 30.8187 123.674 30.493C123.304 30.1785 122.81 30.0101 122.203 30.0101H120.249V33.4804ZM133.895 30.0101H130.885V37.3438H129.74V30.0101H126.719V29.4822H133.895V30.0101Z" fill="#4FB84F"/>
<defs>
<clipPath id="clip0_3023_270">
<rect width="86.9161" height="21.729" fill="white" transform="translate(0 0.976562)"/>
</clipPath>
</defs>
</svg>
